<mxfile host="app.diagrams.net" agent="Mozilla/5.0 (Windows NT 10.0; Win64; x64) AppleWebKit/537.36 (KHTML, like Gecko) Chrome/129.0.0.0 Safari/537.36" version="24.7.17">
  <diagram id="C5RBs43oDa-KdzZeNtuy" name="Page-1">
    <mxGraphModel dx="1050" dy="470" grid="1" gridSize="10" guides="1" tooltips="1" connect="1" arrows="1" fold="1" page="1" pageScale="1" pageWidth="827" pageHeight="1169" math="0" shadow="0">
      <root>
        <mxCell id="WIyWlLk6GJQsqaUBKTNV-0" />
        <mxCell id="WIyWlLk6GJQsqaUBKTNV-1" parent="WIyWlLk6GJQsqaUBKTNV-0" />
        <mxCell id="rKTKu9aD8g5YqVCCVILB-3" style="edgeStyle=orthogonalEdgeStyle;rounded=0;orthogonalLoop=1;jettySize=auto;html=1;entryX=0;entryY=0.5;entryDx=0;entryDy=0;" edge="1" parent="WIyWlLk6GJQsqaUBKTNV-1" source="rKTKu9aD8g5YqVCCVILB-0" target="rKTKu9aD8g5YqVCCVILB-1">
          <mxGeometry relative="1" as="geometry" />
        </mxCell>
        <mxCell id="rKTKu9aD8g5YqVCCVILB-0" value="" style="shape=image;verticalLabelPosition=bottom;labelBackgroundColor=default;verticalAlign=top;aspect=fixed;imageAspect=0;image=data:image/jpeg,/9j/4AAQSkZJRgABAQAAAQABAAD/2wCEAAkGBxANDw0OEA0PDQ8PEBAOEA8NDxAPDQ0NFxEWFhYRFRgaHiggGBolGxMVITEhJykvLjEuFx8zOTMuNyk5LjcBCgoKDg0OGxAQGCsmHSUtMistKy0zLy8rLS4rKysrLS0tLSsyNy0tLS0vLS0rLS0tMjcrLS0tLSstLS0tLS0tLf/AABEIAOsA1gMBEQACEQEDEQH/xAAcAAEAAgMBAQEAAAAAAAAAAAAAAQIEBQYHAwj/xABMEAACAQIBBQkJDAgHAQAAAAAAAQIDEQQFBhIhMRNBUVRhcYGRsQcUIjJSoaLB0RczU2JjcnOTlLPS4xUkNIKSsuHwFiM1QoPC8SX/xAAaAQEBAAMBAQAAAAAAAAAAAAAAAQIEBQMG/8QAOhEBAAECAgQLBwMDBQAAAAAAAAECAwQREiExUgUTFDJBUWFxgaGxM2KRwdHh8BU0oiJCUyMkY3Lx/9oADAMBAAIRAxEAPwD3EAAAAAAADR5azpw2Dbg5OrVW2nSs3F/GeyPNt5D3t4euvX0PC5iKKNXS5TG5+4id1SpUqK5b1J9epeY26cHRG2c2pVjK52Rk02IzlxtTxsXVX0dqf8qR6xYtx/a8Zv3J/uYFXKFeXjYitL51Wcu1npFFMdEMNOrrljTm3tbfO2ypmqptbG1zOwH0hj60fFr1o/Nqzj2Mx0aZ6IZadXXLLoZyY2n4uMr/AL890/nuYTZtz/bDOL1yNlUtxk/uhYum0qsaeJjv3W5VH0x1eieVWEonZqetOLrjbrdzkDObDY9WpycKqV3RqWVRLhW9Jcq6bGlcs1W9uxu271NzZtbo8nqAAAAAAAAAAAAAAAAAHM58ZclhKUaVKWjVrX8JbadNbZLgbukungNrDWorqznZDVxV2aKco2y8ybOm5jNwWRsTiI6dLD1KkfKStF8zdk+g86rtFOqZelNquqM4hh4vDVKMnCrTnSmtejOLi7cK4VymVNUVRnEsaqZpnKYfBsyYqtkVVsCrYFWFVYE06soSjOEnCcWpRlF2lGS3094kxnqkictcPXcyM5f0hScalliKNlUtqVSL2VEujWt586OZfs8XOrY6li9xka9sOlNd7gAAAAAAAAAAAAAAADy/ugVtLHTj8HTpw8zn/wBzqYSMrbl4uc7jXZs4COKxdCjPXBtymuGEYuWj02S6T0vV6FEzDzs0adcRL2CEVFKKSSSSSSsklsSOO7DS545MhicHWulp0oSrU5f7oyirtczSs/6Hth65prjteOIoiuiex4+2dZyVWwKtgVYVVgVbIKtgbnM3KDw2Pws09U5qhNcMKjUdfIpOL/dPK/TpW5+L1s1aNyJ8Pi9uOS6wAAAAAAAAAAAAAAAA8nz4f/0MT/xfcwOthvZR+dLk4n2s/nQ12RMovCYijXS0lCXhRW2UGnGSXLZvpsZ3KNOmaWFuvQqip7Bk/H0sTBVKNSNSL8l64vga2p8jORVRVTOUw69NdNUZxLns+M4aVChVw0JqderF03GLvuUJK0pS4HZuy26zYw9maqoqnZDXxN6KaZpjbLyxs6TmqtgVbCqsCGwKtkFWwr75Mf6xhvp6P3kTGvmz3LRzo736BOM7IAAAAAAAAAAAAAAAA8mz5/1DE/8AF9zA62G9lH50uTifaz+dDQNnu8FbkVQCrYFWwqGBVsCrZBVsKq2B98mP9Yw309H7yJjXzZ7lo50d79BnGdkAAAAAAAAAAAAAAAAcjl3Mp4zEVcR30qe6aHgbjp6OjCMdumr+LwG3axWhTFOTUu4XTqmrS8mv9zh8eX2b8w9OW+75/Z58i97y+6Pc3fHl9m/MJy33fP7HIve8vuj3NXx9fZvzBy33fP7HIve8vuj3NHx9fZvzBy33fP7LyL3vL7o9zN8fX2b8wct93z+xyOd7y+7g8bQ3KrWpX0tyqVKela2loycb23thuUznES06oymYY7ZUVbAq2FVbAyMlv9Yw309H7yJjXzZ7mVHOjvfoQ4zsAAAAAAAAAABWpUUE5Skoxim3KTSjFcLe8WIz2JM5bXI5Wz7pU244em67WrdJNwpX5N+Xm5zbt4OqddU5NS5jKY1Uxm53EZ646eypTpclOlFr0rmxGFtx0NacVcnpY7zwyhxp/VUPwGXJrW76pym7veiHnhlDjT+pofgHJrW76nKbu96KvPHKHG39TQ/AOTWt31OU3d70Q88socbf1OH/AAE5Na3fU5Rd3vRV555R42/qcP8AgHJrW76nKLu96KvPTKPG39Th/wAA5Na3fVeUXd70Q89Mo8bf1OH/AADk1rd9TlF3e9EPPXKPHH9Th/wDk9rd9TlF3e9Ghr1pVJTnJ3lOUpydkryk7t2Wraz2iMoyh5TOc5y+TYRVsKo2BVsDIyX+0Yb6ej95Exr5s9zKnnR3vf8AGVHGN07O6PmcfdrtWtKicpzdy1TFVWUsLvqfleaPsONy/Eb/AJR9GzxVHUd9T8rzR9g5fiN/yj6HFUdS0cbNbbS51Y9KOE71POyn87GM2KZ2MyhiFPZqe+mdjDYyi/GrVPU8K7c0vsbTzAAACJNJNt2S1tvUkgPLs7M45Y2bpwbjhoPwVs3Vr/fL1L1nVsWItxnO1yr9+bk5Rsc6zYa6GwKtgUbAq2RVWwKtgVYVDAq2QVbAq2FVbAq2BVsDJyV+0Yb6ej95Exr5s9zKnnR3vfcf4nSj5XhP2HjDvWOc1x8820XAgipjNxaadmi0XKqKoqpnXBNMTGUtvQq6cVLr5GfV4e/F63FcfkufXTozk+h7sQABy/dAyk6OGVGLtPENwfDuS1z67xXNJm1hKNKvOehq4u5o0ZR0vNGdNzFWwKtgVbAq2RVWwKtgVYVVgVbIKtgVbCqtgVbAq2QQBlZK/aMN9PR+8iSvmz3MqedHe99yh4nSj5XhT2HjDvWOc1tz51touRUNkVFyDMyXU1yjwq65/wC+w6/BF7Kuq3PTr/Pzoa+Ip1RLZHfagAA8z7oeK08Yqd9VGlGNuCcryfmceo6eEpyt59bmYurO5l1OWbNpqqtgVbAq2RVWwKtgVbCqsCGyCjYFWwqrYFWwKtgQQANtmng3iMfgqa+GhUfzIPTl5ovrPO7Vo0TL0tU6VcQ9uylLwYrhd+pf1Pk+Fq8rdNPXPp/67uHjXMtc2cFtouYqi5FRcg+mFnozg+VLoer1mxg7mhfoq7fXUxuU50TDeH2DmgADxvOOvumMxc/lpxXNF6C80UdmzGVuI7HGvTncme1rGz0earYFWyKq2BVsCrYVVgQ2BVsgq2FVbAq2BVsCpAAAeqdzHNyWHhLG1ouNStHRpQkvChQum5PgcrLoS4bGhirsVTow38NayjSl02MracnbYtS9p8Xj8Rx13ONkaodm1Ro0se5pPVDZM1VuYqi5MxFyZq6GnK6T4UmfcW69OiKuuM3KmMpyWM0APDcTU0p1JeVOUuttnciMoycOqc5mXxbKirZFVbAo2BVsKhgVbAzMJkfFV0nSwtepF7JRpy0H+9a3nPOq5TTtlnTbqq2RLJeamUOJVfR9pjx9veZcRc3UPNTKHEqvo+0cfb3l4i5uqvNPKHEqvo+0cfb3jiLm6q80socRq+j7Rx9veOIubqP8I5R4jW9D2k4+3vHE3N0/wjlHiNb0PaOPt7xxNzdffC5j5RqtLvXc15VWpTjFc6TcupEnEW46VjD3J6Hb5s9z2lhpRrYmSxNWNpRglbD05cNnrm+V2XJvmrdxU1RlTqhtWsLFOurXLp8bi73jF879SPmcfwhExNu1PfPyj6upas9NTAucRtIuQQRUXJmqCKi5jmN7gnenT+al1aj7LAznhqO6HMvRlXL7m28wDwiorNrgbXUzuQ4cqNgVbAq2BVsKqwMzI+Sq2OqqjRjd7ZSeqFOPlSe8jC5ciiM5Z0W5rnKHqWQsz8LgUpyiq9Za3WrJWi/iR2R7eU5d/FTMZzOUOlaw1NPRnLdzxsVsu+bUjkV8KWadVOc/na3IsVSp3+vJfWjz/VqdyWXET1nf68l9aH6tTuScRPWd/ryX1ofq1O5JxE9Z3+vJfWh+rU7knET1nf68l9aJ+rUbknJ560fpBeS+tD9Xo3JOTz1qyyjwQ62edXDG7R8ZZRh+uWNWxMp7XZcC1I51/G3r2qqdXVGx7UWqadj4XNR6IuRVbkEGKhFVuQRcit7k73qHM+1n2HBv7Wju+bmX/aSyTeeQB4jlmlueJxUPJr1UubTdvMdq3OdET2OLcjKuY7WC2ZMVWwKtgVYVNKnKpKMIRcpzkoRitspt2SXSyTOUZyRGeqHtObuR6eTcMqas5u0q1RbalTk5FsSOLisTERNyrZDsWLOjEUxtWrVnN3ezeW8j5TEYmu/VnVs6I6nRooimNT5muzAAACLkEXIqGyKi5BVsxzVBFRcmaoIIuTNUNmKobIqrZB0WDjanTXxV2H22Cp0cPRHZHo5V2c65732Np5gHkmfuG3LH1nvVYwqrmcdF+lCR1cNVnbhysTTlclzjZ7vBVsCrYVDA6nubYFVsdujV1h6cqi4N0dox80pPoNbFVZUZdbZwtOdefU9MyhPWo8Gt858jwrdmaotx3u3Yp1ZsM5DYAAACCKi5BW5iqLkVFyCCKgioMVRcmYrciouRUXIqacdKUY+U0utmVuiblcUR0zl8UqnRiZdMlY+9iMoyhxklADge6lgtWGxKWxyoTfP4UOyfWb2Dq20+LRxlOyrwefNm80VWwqrAq2Qd73JF/mY5/FodtT2GnjNlPj8m5g9tXh83a4z3yXR2I+L4Qn/cVeHpDt2uZD4Gk9QCLkEXIqLkVFyCGyZqrcxVFyZiCKgiouRUXIIbMVVbIqCKzsj0tKppb0Ffpepes63A1jTv6c7KY851R82tiq8qMutvD6xzQABg5cybHGYeth5atOPgy8iotcZdDSM7dehVFTC5Rp0zS8RxVCdGc6VSLhOnJwlF70l/e07ETExnDkTExOUvgyohsCrZB33cj8fH/Nw/bVNPGbKfH5N3B7avD5u0xnvkujsR8Xwh+4q8PSHbtcyHxNJ6IuRUXIKtkVDZiqLkEEVFyZqgiouYiLkVVsiouQRcioIqCDocnYfc6aT8aXhS5HwH2fBuFnD2IirnTrn6eDlX7mnXq2Mo6DxAAADmM8M0449brTcaeJiraT8StHejO2x8D7d7YsX5t6p2Ne/Yi5rja8synk6vhJaFejOi72TkvAl82WyXQzo010166Zc6qiqjnQw2zJiq2B3/AHIvHx/zcP21TSxmynx+Tdwe2rw+btcb75Lo7EfF8IfuKvD0h27PMhjmi9UNkVFyCLkVFyKrcmYi5jmqLkVFyZiLkzVDZjmqGyZqi5MxBFEr6krvgWtsRE1TlGuSdTa5Oyc01OorW1xjy8LPouDeCqoqi7ejZsj5z9GlfxETGjT8W1PoWiAAAAABWcFJNNKSe1NXTAwZZEwjd3gsM3wuhSb7DPjK+uWHF0dUI/QOD4jhfs9L2Dja96Ti6N2GRhMn0KGk6NClR0raW5U4U9K17Xste19ZJqqq2ysU007IYeO98l0diPluEf3NXh6Q6FnmQx2zReqLkFbmOaoIqGyK21J0dGN9yvZXvo3vY+mtVYLi6dLQzyjqaNUXc5yz81tKh8l6B6aWA/4/4scr3b5mlQ+R9AmlgOu3/EyvdvmaVD5H0BpcH9dv+K5Xu3zRpYfho+gNPg/rt/xMr3b5ieH+R9ARVwfM5Rxf8TK92+b7d7U/g4fwxNnklj/HT8IefGV70ne1P4OH8MRyTD/46fhBxte9J3tT+Dh/DEckw/8Ajp+EHG170rwpqOyKjzJI9aLdFHNiI7mM1TO2VjNAAAAAAAAAAAAanHe+S6OxHy/CP7mrw9Ib1nmQxrmg9kXIIuRUEVBiqLkzFWyKi5FRciouYi1HxofOj2npZ9rT3x6pVzZdOffOMAAAAAAAAAAAAAAAANPj/fJdH8qPleEv3NXh6Q37HMhjXNB7IuTMQRUEVFyKi5BDZirIwWEdZvXaK2v1I3sDgasVVOvKmNs/KHldvRbjtZ8skwtqlJPhdmdirgOzNOVNU5+H0asYurPXENTiKLpycZbV1NcJ87icPXYuTbr2+va3qK4rpzhWj40PnR7TCx7Wnvj1Wvmy6g+/cYAAAAAAAAAAAAAAAAajKUbVHypP1eo+X4Vp0cRM9cRPy+Tfw850MS5zc3ugiouY5iLkVVsiouQRcit3kdrctW3Sd+f/AMsfWcDTTOG1bc5z/O7JzsVnxjOOq1mny41pQ4dF35r6vWfM8PTHGUR05T66vm38HnoywcLHSqU18aPVfWcnC0TXfopjrj1bNycqJnsdMfeOOAAAAAAAAAAAAAAAAMXH4fdI3XjR2cq4DncI4Sb9vOnnRs7ex7WbmhOvY0zPlZ1OircxEXIqGyKhsxVFyCCK++ExcqTutae2L2M3MHjbmFqzp1xO2PzZLyu2ouRrZ8ssK2qm78r1HXq4ep0f6aJz7Z1NaMHOeuWrrVXOTlJ3b/uxwL16u9XNdc65blNMUxlDZ5IwjX+bJb1ork8o73A2CmP9euP+v1+jTxV3P+iPFtT6FpAAAAAAAAAAAAAAAAABi4vBRqa14MuFbHznOxnB1vEf1Rqq6+vve9q/NGroaqvhJw2xuuGOtHzuIwN+zzqdXXGuPt4t2i7RVsljXNLN6ouRUEVBAAAfWjh51PFi3y73We9jC3r/ALOmZ7ej47GFdymjnS2mEyWo2lNqT8leKufhPoMHwNTbnTvTnPV0ff0aV3FTOqnU2R3GoAAAAAAAAAAAAAAAAAAAAA+NXC05+NBPl2PrRrXcHYu8+iO/p+Ma3pTdrp2Sxp5JpvY5R6U15zQr4Ew9XNmY/O17Ri6425Pi8jcFTrjf1mtVwDHRc8vuz5Z7osjfK+j/AFEcA9dzy+5yz3X0hkiC2yk+pI96OA7Ec6qqfh9GM4uvoiGTSwNKOyC55eF2m7a4Ow1vm0R46/V41X7lW2WQbryAAAAAAAAAAAAAAAAAAAAAAAAAAAAAAAAAAAAAAAAAAAAAAAAAAAABcCNICNMCNMBugDdAG6ATpgNICbgSAAAAAAAAAAAAAAAAAAKNgVbAo2BVsCNICNIBpANICykBKYF0wLJgXTAkAAAAAAAAAAAAAAABDiBRwAq4AVcAI0AI0AGgA0AJUALKAFlAC6iBYAAAAAAAAAAAAAAAAAAAACwEWAWAWAWAWAkAAAAAAAAAAAAAH//Z;" vertex="1" parent="WIyWlLk6GJQsqaUBKTNV-1">
          <mxGeometry x="20" y="200" width="81.96" height="90" as="geometry" />
        </mxCell>
        <mxCell id="rKTKu9aD8g5YqVCCVILB-6" style="edgeStyle=orthogonalEdgeStyle;rounded=0;orthogonalLoop=1;jettySize=auto;html=1;entryX=0;entryY=0.5;entryDx=0;entryDy=0;" edge="1" parent="WIyWlLk6GJQsqaUBKTNV-1" source="rKTKu9aD8g5YqVCCVILB-1" target="rKTKu9aD8g5YqVCCVILB-4">
          <mxGeometry relative="1" as="geometry" />
        </mxCell>
        <mxCell id="rKTKu9aD8g5YqVCCVILB-1" value="" style="strokeColor=#dddddd;shadow=1;strokeWidth=1;rounded=1;absoluteArcSize=1;arcSize=2;" vertex="1" parent="WIyWlLk6GJQsqaUBKTNV-1">
          <mxGeometry x="240" y="215" width="120" height="60" as="geometry" />
        </mxCell>
        <mxCell id="rKTKu9aD8g5YqVCCVILB-2" value="Cloud&#xa;Storage" style="editableCssRules=.*;html=1;fontColor=#999999;shape=image;verticalLabelPosition=middle;verticalAlign=middle;labelPosition=right;align=left;spacingLeft=20;part=1;points=[];imageAspect=0;image=data:image/svg+xml,PHN2ZyB4bWxucz0iaHR0cDovL3d3dy53My5vcmcvMjAwMC9zdmciIHhtbG5zOnY9Imh0dHBzOi8vdmVjdGEuaW8vbmFubyIgd2lkdGg9IjIwIiBoZWlnaHQ9IjE2IiB2aWV3Qm94PSIwIDAgMjAgMTYiPiYjeGE7CTxzdHlsZSB0eXBlPSJ0ZXh0L2NzcyI+JiN4YTsJLnN0MHtmaWxsOiM0Mjg1ZjQ7fSYjeGE7CS5zdDF7ZmlsbDojNjY5ZGY2O30mI3hhOwkuc3Qye2ZpbGw6I2FlY2JmYTt9JiN4YTsJLnN0M3tmaWxsOiNmZmY7fSYjeGE7CTwvc3R5bGU+JiN4YTsJPHBhdGggY2xhc3M9InN0MiIgZD0iTTAgMGgyMHY3SDB6Ii8+JiN4YTsJPHBhdGggY2xhc3M9InN0MSIgZD0iTTE4IDBoMnY3aC0yeiIvPiYjeGE7CTxwYXRoIGNsYXNzPSJzdDAiIGQ9Ik0xOCA3bDItN2gtMnoiLz4mI3hhOwk8cGF0aCBjbGFzcz0ic3QxIiBkPSJNMCAwaDJ2N0gweiIvPiYjeGE7CTxnIGNsYXNzPSJzdDMiPiYjeGE7CQk8cGF0aCBkPSJNNCAzaDZ2MUg0eiIvPiYjeGE7CQk8cmVjdCB4PSIxMyIgeT0iMiIgd2lkdGg9IjMiIGhlaWdodD0iMyIgcng9IjEuNSIvPiYjeGE7CTwvZz4mI3hhOwk8cGF0aCBjbGFzcz0ic3QyIiBkPSJNMCA5aDIwdjdIMHoiLz4mI3hhOwk8cGF0aCBjbGFzcz0ic3QxIiBkPSJNMTggOWgydjdoLTJ6Ii8+JiN4YTsJPHBhdGggY2xhc3M9InN0MCIgZD0iTTE4IDE2bDItN2gtMnoiLz4mI3hhOwk8cGF0aCBjbGFzcz0ic3QxIiBkPSJNMCA5aDJ2N0gweiIvPiYjeGE7CTxnIGNsYXNzPSJzdDMiPiYjeGE7CQk8cGF0aCBkPSJNNCAxMmg2djFINHoiLz4mI3hhOwkJPHJlY3QgeD0iMTMiIHk9IjExIiB3aWR0aD0iMyIgaGVpZ2h0PSIzIiByeD0iMS41Ii8+JiN4YTsJPC9nPiYjeGE7PC9zdmc+;" vertex="1" parent="rKTKu9aD8g5YqVCCVILB-1">
          <mxGeometry width="30" height="24" relative="1" as="geometry">
            <mxPoint x="15" y="18" as="offset" />
          </mxGeometry>
        </mxCell>
        <mxCell id="rKTKu9aD8g5YqVCCVILB-9" style="edgeStyle=orthogonalEdgeStyle;rounded=0;orthogonalLoop=1;jettySize=auto;html=1;entryX=0;entryY=0.5;entryDx=0;entryDy=0;" edge="1" parent="WIyWlLk6GJQsqaUBKTNV-1" source="rKTKu9aD8g5YqVCCVILB-4" target="rKTKu9aD8g5YqVCCVILB-7">
          <mxGeometry relative="1" as="geometry" />
        </mxCell>
        <mxCell id="rKTKu9aD8g5YqVCCVILB-4" value="" style="strokeColor=#dddddd;shadow=1;strokeWidth=1;rounded=1;absoluteArcSize=1;arcSize=2;" vertex="1" parent="WIyWlLk6GJQsqaUBKTNV-1">
          <mxGeometry x="470" y="215" width="140" height="60" as="geometry" />
        </mxCell>
        <mxCell id="rKTKu9aD8g5YqVCCVILB-5" value="Cloud&#xa;Data Fusion" style="editableCssRules=.*;html=1;fontColor=#999999;shape=image;verticalLabelPosition=middle;verticalAlign=middle;labelPosition=right;align=left;spacingLeft=20;part=1;points=[];imageAspect=0;image=data:image/svg+xml,PHN2ZyB4bWxucz0iaHR0cDovL3d3dy53My5vcmcvMjAwMC9zdmciIHhtbG5zOnY9Imh0dHBzOi8vdmVjdGEuaW8vbmFubyIgd2lkdGg9IjM3Ny4wNDk2OTgzMjc3ODkyNiIgaGVpZ2h0PSIzNzcuMjkxNTcwNzE1Nzg5NzYiIHZpZXdCb3g9IjAuMTMxMDAwNTE4Nzk4ODI4MTIgLTAuMTIxMDAwMDA2Nzk0OTI5NSA5OS43NjEwMDE1ODY5MTQwNiA5OS44MjQ5OTY5NDgyNDIxOSI+JiN4YTs8c3R5bGUgdHlwZT0idGV4dC9jc3MiPiYjeGE7CS5zdDB7ZmlsbDojNjY5ZGY2O30mI3hhOwkuc3Qxe2ZpbGw6IzQyODVmNDt9JiN4YTsJLnN0MntmaWxsOiNhZWNiZmE7fSYjeGE7PC9zdHlsZT4mI3hhOwk8cGF0aCBjbGFzcz0ic3QwIiBkPSJNODAuNTkzIDE5LjE4djIwLjE5OWgxOS4yOTlWOS41M2MwLTIuNTM3LS45NzktNC44NDYtMi41OC02LjU2OHptLTkuOTA4IDYxLjIyNUgxOS40MzFMMy40NSA5Ny4zMzdjMS42OTUgMS40NzQgMy45MDggMi4zNjcgNi4zMzEgMi4zNjdoNzAuNTU1YzIuODczIDAgNS40NTMtMS4yNTYgNy4yMjEtMy4yNDh6Ii8+JiN4YTsJPHBhdGggY2xhc3M9InN0MSIgZD0iTTg3LjU3MyA5Ni40MzdjMS41MDEtMS43MDEgMi40MTMtMy45MzUgMi40MTMtNi4zODJWNjAuMjA0SDcwLjY4NXYyMC4yMDF6Ii8+JiN4YTsJPHBhdGggY2xhc3M9InN0MiIgZD0iTTE5LjQzMSA4MC40MDVWMjkuMzRoMjAuNTc4VjEwLjA0SDkuNzgxYy01LjMzIDAtOS42NSA0LjMyMS05LjY1IDkuNjV2NzAuMzY1Yy4wMDEgMi45MDYgMS4yODYgNS41MTMgMy4zMiA3LjI4MXptNzcuODgtNzcuNDQzQzk1LjU1IDEuMDY2IDkzLjAzNi0uMTIgOTAuMjQ0LS4xMjFINTkuOTUxVjE5LjE4aDIwLjY0M3oiLz4mI3hhOzwvc3ZnPg==;" vertex="1" parent="rKTKu9aD8g5YqVCCVILB-4">
          <mxGeometry width="30" height="30" relative="1" as="geometry">
            <mxPoint x="15" y="15" as="offset" />
          </mxGeometry>
        </mxCell>
        <mxCell id="rKTKu9aD8g5YqVCCVILB-12" style="edgeStyle=orthogonalEdgeStyle;rounded=0;orthogonalLoop=1;jettySize=auto;html=1;entryX=0.5;entryY=0;entryDx=0;entryDy=0;" edge="1" parent="WIyWlLk6GJQsqaUBKTNV-1" source="rKTKu9aD8g5YqVCCVILB-7" target="rKTKu9aD8g5YqVCCVILB-10">
          <mxGeometry relative="1" as="geometry" />
        </mxCell>
        <mxCell id="rKTKu9aD8g5YqVCCVILB-7" value="" style="strokeColor=#dddddd;shadow=1;strokeWidth=1;rounded=1;absoluteArcSize=1;arcSize=2;" vertex="1" parent="WIyWlLk6GJQsqaUBKTNV-1">
          <mxGeometry x="690" y="215" width="130" height="60" as="geometry" />
        </mxCell>
        <mxCell id="rKTKu9aD8g5YqVCCVILB-8" value="BigQuery" style="editableCssRules=.*;html=1;fontColor=#999999;shape=image;verticalLabelPosition=middle;verticalAlign=middle;labelPosition=right;align=left;spacingLeft=20;part=1;points=[];imageAspect=0;image=data:image/svg+xml,PHN2ZyB4bWxucz0iaHR0cDovL3d3dy53My5vcmcvMjAwMC9zdmciIHhtbG5zOnY9Imh0dHBzOi8vdmVjdGEuaW8vbmFubyIgd2lkdGg9IjIwLjAwMTA0NTIyNzA1MDc4IiBoZWlnaHQ9IjIwLjAwMTA0NTIyNzA1MDc4IiBmaWxsLXJ1bGU9ImV2ZW5vZGQiIHZpZXdCb3g9IjAgMCAyMC4wMDEwNDUyMjcwNTA3OCAyMC4wMDEwNDUyMjcwNTA3OCI+JiN4YTsJPHN0eWxlIHR5cGU9InRleHQvY3NzIj4mI3hhOwkuc3Qwe2ZpbGw6I2FlY2JmYTt9JiN4YTsJLnN0MXtmaWxsOiM2NjlkZjY7fSYjeGE7CS5zdDJ7ZmlsbDojNDI4NWY0O30mI3hhOwk8L3N0eWxlPiYjeGE7CTxwYXRoIGNsYXNzPSJzdDAiIGQ9Ik00LjczIDguODN2Mi42M2E0LjkxIDQuOTEgMCAwIDAgMS43MSAxLjc0VjguODN6Ii8+JiN4YTsJPHBhdGggY2xhc3M9InN0MSIgZD0iTTcuODkgNi40MXY3LjUzQTcuNjIgNy42MiAwIDAgMCA5IDE0YTggOCAwIDAgMCAxIDBWNi40MXoiLz4mI3hhOwk8cGF0aCBjbGFzcz0ic3QwIiBkPSJNMTEuNjQgOS44NnYzLjI5YTUgNSAwIDAgMCAxLjctMS44MlY5Ljg2eiIvPiYjeGE7CTxwYXRoIGNsYXNzPSJzdDIiIGQ9Ik0xNS43NCAxNC4zMmwtMS40MiAxLjQyYS40Mi40MiAwIDAgMCAwIC42bDMuNTQgMy41NGEuNDIuNDIgMCAwIDAgLjU5IDBsMS40My0xLjQzYS40Mi40MiAwIDAgMCAwLS41OWwtMy41NC0zLjU0YS40Mi40MiAwIDAgMC0uNiAwIi8+JiN4YTsJPHBhdGggY2xhc3M9InN0MSIgZD0iTTkgMGE5IDkgMCAxIDAgMCAxOEE5IDkgMCAxIDAgOSAwbTAgMTUuNjlhNi42OCA2LjY4IDAgMCAxIC4wMDctMTMuMzYgNi42OCA2LjY4IDAgMCAxIDQuNzI3IDExLjQwM0E2LjY4IDYuNjggMCAwIDEgOSAxNS42OSIvPiYjeGE7PC9zdmc+;" vertex="1" parent="rKTKu9aD8g5YqVCCVILB-7">
          <mxGeometry width="30" height="30" relative="1" as="geometry">
            <mxPoint x="15" y="15" as="offset" />
          </mxGeometry>
        </mxCell>
        <mxCell id="rKTKu9aD8g5YqVCCVILB-10" value="Looker" style="sketch=0;html=1;verticalAlign=top;labelPosition=center;verticalLabelPosition=bottom;align=center;spacingTop=-6;fontSize=11;fontStyle=1;fontColor=#999999;shape=image;aspect=fixed;imageAspect=0;image=data:image/svg+xml,PHN2ZyB4bWxucz0iaHR0cDovL3d3dy53My5vcmcvMjAwMC9zdmciIGlkPSJzdmc4OTgwMSIgdmVyc2lvbj0iMS4xIiB2aWV3Qm94PSIwIDAgMjA4LjA1NjU1IDMzNC42MTMxNiIgaGVpZ2h0PSIzMzQuNjEzMTZtbSIgd2lkdGg9IjIwOC4wNTY1NW1tIj4mI3hhOyAgJiN4YTsgIDxkZWZzIGlkPSJkZWZzODk3OTgiLz4mI3hhOyAgPGcgdHJhbnNmb3JtPSJ0cmFuc2xhdGUoLTQuMjQ2MjUyNCwxNS42NzE5MTEpIiBpZD0ibGF5ZXIxIj4mI3hhOyAgICA8cGF0aCBpZD0icGF0aDkxODAyIiB0cmFuc2Zvcm09InNjYWxlKDAuMjY0NTgzMzMpIiBkPSJtIDQwOS4yMjI2Niw0MTkuMDk5NjEgYyAtMzYuNjA4MTEsMCAtNzIuMDc2NjcsNS4wNzUzIC0xMDUuNzUzOTEsMTQuNTMxMjUgbCA0OS4wMzUxNiwxMjAuMDQxMDIgYyAxOC4yNjE3MiwtMy45Mzg5OSAzNy4yMjE5NiwtNi4wNjgzNiA1Ni43MTg3NSwtNi4wNjgzNiAxNDYuOTM1MTQsMCAyNjQuNjc3NzMsMTE3LjczNDc3IDI2NC42Nzc3MywyNjQuNjY5OTIgMCwxNDYuOTM1MTQgLTExNy43NDI1OSwyNjQuNjY5OTYgLTI2NC42Nzc3MywyNjQuNjY5OTYgLTE0Ni45MzUxNiwwIC0yNjQuNjY5OTEsLTExNy43MzQ4MiAtMjY0LjY2OTkzLC0yNjQuNjY5OTYgMCwtOTkuMTg3NjMgNTMuNjg5ODMsLTE4NS4wMDU5NiAxMzMuNzU1ODYsLTIzMC4zNDc2NiBMIDIyOS42MjY5NSw0NjIuNzUgQyAxMDMuMDI0Nyw1MjguMjI0NzQgMTYuMDQ4ODI3LDY2MC41MDUyMyAxNi4wNDg4MjgsODEyLjI3MzQ0IGMgMi4zZS01LDIxNi4zODM3NiAxNzYuNzkwMDYyLDM5My4xNzM4NiAzOTMuMTczODMyLDM5My4xNzM4NiAyMTYuMzgzNzMsMCAzOTMuMTgxNjQsLTE3Ni43OTAxIDM5My4xODE2NCwtMzkzLjE3Mzg2IDNlLTUsLTIxNi4zODM3OCAtMTc2Ljc5Nzg3LC0zOTMuMTczODMgLTM5My4xODE2NCwtMzkzLjE3MzgzIHoiIHN0eWxlPSJjb2xvcjojMDAwMDAwO29wYWNpdHk6MTtmaWxsOiM1OTg2ZjI7ZmlsbC1vcGFjaXR5OjE7c3Ryb2tlLXdpZHRoOjMuNzc5NTM7c3Ryb2tlLWxpbmVqb2luOnJvdW5kOy1pbmtzY2FwZS1zdHJva2U6bm9uZSIvPiYjeGE7ICAgIDxwYXRoIGQ9Im0gMTg5Ljk0MzM2LDg2LjI1IGMgLTk1LjEzMDMzMSwwIC0xNzMuMTc5Njg4LDc4LjA1NTIyIC0xNzMuMTc5Njg4LDE3My4xODU1NSAtNmUtNiw5NS4xMzAzMyA3OC4wNDkzNTMsMTczLjE3OTY4IDE3My4xNzk2ODgsMTczLjE3OTY4IDkuMDE2MTgsMCAxNy44NzU4LC0wLjcwODMyIDI2LjUzMzIsLTIuMDU4NTkgbCAtMzQuODI4MTIsLTg1LjI2NTYyIGMgLTQ0LjE1NzMsLTQuMDg2NjkgLTc3Ljk1NTA4LC00MC41MDcwNSAtNzcuOTU1MDgsLTg1Ljg1NTQ3IDAsLTQ4LjE1MDM5IDM4LjA5OTYyLC04Ni4yNTU4NiA4Ni4yNSwtODYuMjU1ODYgMTMuMTU5NzcsMCAyNS41NTg4OCwyLjg2MjQ2IDM2LjY0NDUzLDcuOTgyNDIgbCA2NC41NTQ2OSwtNjEuOTE5OTIgQyAyNjIuNjA4MzcsOTguNTMzOTEgMjI3LjYyOTI5LDg2LjI1IDE4OS45NDMzNiw4Ni4yNSBaIG0gMTM4Ljg4ODY3LDcwLjE2MjExIC02My40Mjc3Myw2MC44MzU5NCBjIDYuODc2MzgsMTIuNDI2NzggMTAuNzg5MDYsMjYuNzg4MTUgMTAuNzg5MDYsNDIuMTg3NSAwLDIxLjc2NzEyIC03LjgwNDE1LDQxLjQ2NTQgLTIwLjc4NTE2LDU2LjUzMzIgbCAzNC41MjM0NCw4NC41MTk1MyBjIDQ0LjE3Mzg3LC0zMS40ODc1MSA3My4xOTE0MSwtODMuMDc4OTIgNzMuMTkxNDEsLTE0MS4wNTI3MyAwLC0zOC40ODM1NSAtMTIuNzgyLC03NC4xNjUzMiAtMzQuMjkxMDIsLTEwMy4wMjM0NCB6IiB0cmFuc2Zvcm09InNjYWxlKDAuMjY0NTgzMzMpIiBzdHlsZT0iY29sb3I6IzAwMDAwMDtvcGFjaXR5OjE7ZmlsbDojNmY5OGY0O2ZpbGwtb3BhY2l0eToxO3N0cm9rZS13aWR0aDozLjc3OTUzO3N0cm9rZS1saW5lam9pbjpyb3VuZDstaW5rc2NhcGUtc3Ryb2tlOm5vbmUiIGlkPSJwYXRoOTE3OTgiLz4mI3hhOyAgICA8cGF0aCBpZD0icGF0aDg5OTI4IiB0cmFuc2Zvcm09InNjYWxlKDAuMjY0NTgzMzMpIiBkPSJtIDQwNi4xMzY3MiwtNTkuMjMyNDIyIGMgLTU4LjgxNTQ3LDhlLTYgLTEwNy4xMDM1Miw0OC4yODgwNDUgLTEwNy4xMDM1MiwxMDcuMTAzNTE2IDAsMTguNDk0NDUxIDQuNzgxMDEsMzUuOTQ1MDE3IDEzLjE1NjI1LDUxLjE4MzU5NCBsIDQ0LjMxMjUsLTQyLjUwMzkwNyBjIC0wLjQ3NTY3LC0yLjgyMDc3NSAtMC43NzUzOSwtNS43MDc1NjQgLTAuNzc1MzksLTguNjc5Njg3IDAsLTI4LjE3NjM4IDIyLjIzMzc4LC01MC40MTAxNTI1IDUwLjQxMDE2LC01MC40MTAxNTY1IDI4LjE3NjM4LC00ZS02IDUwLjQxMDE1LDIyLjIzMzc3MDUgNTAuNDEwMTYsNTAuNDEwMTU2NSAwLDI4LjE3NjM4MSAtMjIuMjMzNzgsNTAuNDEyMTEzIC01MC40MTAxNiw1MC40MTIxMDkgLTUuMDY4NjksLTEwZS03IC05LjkzNDE3LC0wLjc0NTYzMSAtMTQuNTIzNDQsLTIuMDg5ODQ0IGwgLTQzLjM2MTMzLDQxLjU5MTgwMSBjIDE2LjczMjIzLDEwLjg0Nzk1IDM2LjYxMTIzLDE3LjE4OTQ1IDU3Ljg4NDc3LDE3LjE4OTQ1IDU4LjgxNTQ5LDEwZS02IDEwNy4xMDM1MSwtNDguMjg4MDQgMTA3LjEwMzUxLC0xMDcuMTAzNTE2IDAsLTU4LjgxNTQ4MyAtNDguMjg4MDIsLTEwNy4xMDM1MjMgLTEwNy4xMDM1MSwtMTA3LjEwMzUxNiB6IiBzdHlsZT0iY29sb3I6IzAwMDAwMDtvcGFjaXR5OjE7ZmlsbDojZDZlM2ZiO2ZpbGwtb3BhY2l0eToxO3N0cm9rZS13aWR0aDozLjc3OTUzO3N0cm9rZS1saW5lam9pbjpyb3VuZDstaW5rc2NhcGUtc3Ryb2tlOm5vbmUiLz4mI3hhOyAgPC9nPiYjeGE7PC9zdmc+;" vertex="1" parent="WIyWlLk6GJQsqaUBKTNV-1">
          <mxGeometry x="710" y="400" width="26" height="42" as="geometry" />
        </mxCell>
        <mxCell id="rKTKu9aD8g5YqVCCVILB-11" value="" style="image;aspect=fixed;html=1;points=[];align=center;fontSize=12;image=img/lib/azure2/general/Dashboard.svg;" vertex="1" parent="WIyWlLk6GJQsqaUBKTNV-1">
          <mxGeometry x="752" y="400" width="68" height="48" as="geometry" />
        </mxCell>
        <mxCell id="rKTKu9aD8g5YqVCCVILB-13" value="" style="rounded=0;whiteSpace=wrap;html=1;" vertex="1" parent="WIyWlLk6GJQsqaUBKTNV-1">
          <mxGeometry x="30" y="50" width="760" height="90" as="geometry" />
        </mxCell>
        <mxCell id="rKTKu9aD8g5YqVCCVILB-14" value="Cloud&#xa;Composer" style="sketch=0;html=1;verticalAlign=top;labelPosition=center;verticalLabelPosition=bottom;align=center;spacingTop=-6;fontSize=11;fontStyle=1;fontColor=#999999;shape=image;aspect=fixed;imageAspect=0;image=data:image/svg+xml,PHN2ZyB4bWxucz0iaHR0cDovL3d3dy53My5vcmcvMjAwMC9zdmciIHhtbG5zOnY9Imh0dHBzOi8vdmVjdGEuaW8vbmFubyIgd2lkdGg9IjE0LjY0MDAwMDM0MzMyMjc1NCIgaGVpZ2h0PSIyMCIgdmlld0JveD0iMCAwIDE0LjY0MDAwMDM0MzMyMjc1NCAyMCI+JiN4YTsJPHN0eWxlIHR5cGU9InRleHQvY3NzIj4mI3hhOwkuc3Qwe2ZpbGw6I2FlY2JmYTt9JiN4YTsJLnN0MXtmaWxsOiM0Mjg1ZjQ7fSYjeGE7CTwvc3R5bGU+JiN4YTsJPHBhdGggY2xhc3M9InN0MCIgZD0iTTAgMGgxNC42M3YzLjk0aC01LjN2NS4zM0g1LjM1VjMuOTZIMHoiLz4mI3hhOwk8cGF0aCBjbGFzcz0ic3QxIiBkPSJNMy45NSAxMC42N2g1LjM0VjIwSDUuMzV2LTUuMzVIMFY1LjM3aDMuOTV6TTE0LjY0IDIwSDEwLjdWNS4zNmgzLjk0eiIvPiYjeGE7CTxwYXRoIGNsYXNzPSJzdDAiIGQ9Ik0wIDE2LjA2aDMuOTJWMjBIMHoiLz4mI3hhOzwvc3ZnPg==;" vertex="1" parent="WIyWlLk6GJQsqaUBKTNV-1">
          <mxGeometry x="80" y="70" width="32" height="42" as="geometry" />
        </mxCell>
        <mxCell id="rKTKu9aD8g5YqVCCVILB-15" value="Export data" style="text;html=1;align=center;verticalAlign=middle;whiteSpace=wrap;rounded=0;" vertex="1" parent="WIyWlLk6GJQsqaUBKTNV-1">
          <mxGeometry x="140" y="260" width="60" height="30" as="geometry" />
        </mxCell>
        <mxCell id="rKTKu9aD8g5YqVCCVILB-16" value="Transfrom and load data" style="text;html=1;align=center;verticalAlign=middle;whiteSpace=wrap;rounded=0;" vertex="1" parent="WIyWlLk6GJQsqaUBKTNV-1">
          <mxGeometry x="620" y="260" width="60" height="30" as="geometry" />
        </mxCell>
      </root>
    </mxGraphModel>
  </diagram>
</mxfile>
